<svg xmlns="http://www.w3.org/2000/svg" xmlns:xlink="http://www.w3.org/1999/xlink" version="1.1" width="265" height="60" viewBox="180 20 265 60">
<g enable-background="new">
<g id="Layer-1" data-name="Layer">
<g clip-path="url(#cp0)">
<path transform="matrix(1,0,0,-1,273.9923,23.56593)" d="M 0 0 L 9.517 0 L 9.517 -47.374 L 6.344 -47.374 L -20.585 -18.611 L -20.585 -46.528 L -30.103 -46.528 L -30.103 .847 L -27.001 .847 L 0 -27.775 Z " fill="#FFFFFF"/>
<path transform="matrix(1,0,0,-1,293.1534,46.8296)" d="M 0 0 C -.095 6.673 2.327 12.396 7.261 17.166 C 12.196 21.936 18.047 24.251 24.815 24.11 C 29.232 24.11 33.24 23.088 36.835 21.044 C 40.43 18.999 43.261 16.167 45.33 12.549 L 38.139 7.473 C 34.801 12.689 30.36 15.298 24.815 15.298 C 20.491 15.298 16.907 13.841 14.064 10.927 C 11.22 8.013 9.799 4.347 9.799 -.071 C 9.799 -4.489 11.22 -8.132 14.064 -10.998 C 16.907 -13.865 20.491 -15.298 24.815 -15.298 C 30.36 -15.298 34.801 -12.69 38.139 -7.473 L 45.33 -12.549 C 43.309 -16.169 40.489 -18.999 36.87 -21.044 C 33.25 -23.089 29.209 -24.11 24.745 -24.11 C 17.93 -24.251 12.066 -21.937 7.155 -17.166 C 2.244 -12.396 -.141 -6.675 0 0 " fill="#FFFFFF"/>
<path transform="matrix(1,0,0,-1,357.4816,31.9546)" d="M 0 0 L 0 -13.324 L 7.966 -13.324 C 10.175 -13.324 11.902 -12.714 13.148 -11.491 C 14.393 -10.27 15.016 -8.648 15.016 -6.627 C 15.016 -4.653 14.37 -3.056 13.077 -1.833 C 11.784 -.611 10.081 0 7.966 0 Z M 29.75 -38.14 L 19.035 -38.14 L 6.979 -21.714 L 0 -21.714 L 0 -38.14 L -9.517 -38.14 L -9.517 8.389 L 7.966 8.389 C 12.854 8.389 16.872 7.002 20.021 4.229 C 23.17 1.456 24.745 -2.162 24.745 -6.627 C 24.745 -9.542 24.028 -12.161 22.195 -14.487 C 21.161 -16.814 19.151 -18.611 16.567 -19.881 Z " fill="#FFFFFF"/>
<path transform="matrix(1,0,0,-1,430.4044,46.8296)" d="M 0 0 C 0 4.417 -1.422 8.071 -4.265 10.962 C -7.109 13.853 -10.669 15.298 -14.945 15.298 C -19.27 15.298 -22.841 13.863 -25.661 10.997 C -28.48 8.13 -29.891 4.464 -29.891 0 C -29.891 -4.466 -28.48 -8.132 -25.661 -10.998 C -22.841 -13.865 -19.27 -15.298 -14.945 -15.298 C -10.669 -15.298 -7.109 -13.865 -4.265 -10.998 C -1.422 -8.132 0 -4.466 0 0 M -39.69 0 C -39.785 6.627 -37.375 12.337 -32.464 17.131 C -27.554 21.925 -21.737 24.251 -15.016 24.11 C -8.295 24.251 -2.456 21.925 2.502 17.131 C 7.461 12.337 9.893 6.627 9.799 0 C 9.893 -6.627 7.461 -12.338 2.502 -17.131 C -2.456 -21.925 -8.295 -24.251 -15.016 -24.11 C -21.737 -24.251 -27.554 -21.925 -32.464 -17.131 C -37.375 -12.338 -39.785 -6.627 -39.69 0 " fill="#FFFFFF"/>
<path transform="matrix(1,0,0,-1,0,195.276)" d="M 194.389 153.099 L 185.08402 153.099 L 185.08402 162.405 L 194.389 162.405 Z " fill="#FFFFFF"/>
<path transform="matrix(1,0,0,-1,0,195.276)" d="M 194.389 134.487 L 185.08402 134.487 L 185.08402 143.793 L 194.389 143.793 Z " fill="#FFFFFF"/>
<path transform="matrix(1,0,0,-1,0,195.276)" d="M 231.611 162.404 L 194.388 162.404 L 194.388 171.71 L 231.611 171.71 Z " fill="#FFFFFF"/>
<path transform="matrix(1,0,0,-1,0,195.276)" d="M 231.611 143.793 L 194.388 143.793 L 194.388 153.099 L 231.611 153.099 Z " fill="#FFFFFF"/>
<path transform="matrix(1,0,0,-1,0,195.276)" d="M 231.611 125.182 L 194.388 125.182 L 194.388 134.488 L 231.611 134.488 Z " fill="#FFFFFF"/>
</g>
</g>
</g>
</svg>