<svg xmlns="http://www.w3.org/2000/svg" xmlns:xlink="http://www.w3.org/1999/xlink" version="1.1" width="55" height="55" viewBox="180 20 55 55">
<g enable-background="new">
<g id="Layer-1" data-name="Layer">
<g clip-path="url(#cp0)">
<path transform="matrix(1,0,0,-1,0,195.276)" d="M 194.389 153.099 L 185.08402 153.099 L 185.08402 162.405 L 194.389 162.405 Z " fill="#FFFFFF"/>
<path transform="matrix(1,0,0,-1,0,195.276)" d="M 194.389 134.487 L 185.08402 134.487 L 185.08402 143.793 L 194.389 143.793 Z " fill="#FFFFFF"/>
<path transform="matrix(1,0,0,-1,0,195.276)" d="M 231.611 162.404 L 194.388 162.404 L 194.388 171.71 L 231.611 171.71 Z " fill="#FFFFFF"/>
<path transform="matrix(1,0,0,-1,0,195.276)" d="M 231.611 143.793 L 194.388 143.793 L 194.388 153.099 L 231.611 153.099 Z " fill="#FFFFFF"/>
<path transform="matrix(1,0,0,-1,0,195.276)" d="M 231.611 125.182 L 194.388 125.182 L 194.388 134.488 L 231.611 134.488 Z " fill="#FFFFFF"/>
</g>
</g>
</g>
</svg>